<?xml version="1.0" encoding="UTF-8"?>
<svg width="500px" height="398px" viewBox="0 0 500 398" version="1.1" xmlns="http://www.w3.org/2000/svg" xmlns:xlink="http://www.w3.org/1999/xlink">
    <!-- Generator: Sketch 49.2 (51160) - http://www.bohemiancoding.com/sketch -->
    <title>happy_bot</title>
    <desc>Created with Sketch.</desc>
    <defs></defs>
    <g id="Page-1" stroke="none" stroke-width="1" fill="none" fill-rule="evenodd">
        <g id="happy_bot" transform="translate(0.000000, -1.000000)" fill="#000000" fill-rule="nonzero">
            <g id="Group">
                <path d="M320.866667,98.6111111 L334.183333,109.138889 C362.194444,73.7166667 346.433333,35.0666667 334.183333,19.5777778 L320.85,30.0833333 C321.227778,30.5666667 324.488889,34.8444444 327.527778,41.6111111 C332.411111,52.4888889 336.683333,69.8055556 327.527778,88.1666667 C325.805556,91.6277778 323.633333,95.1166667 320.866667,98.6111111 Z" id="Shape"></path>
                <path d="M358.205556,117.261111 L365.072222,122.25 L371.938889,127.244444 C417.133333,65.0777778 372.394444,2.09444444 371.938889,1.46666667 L358.194444,11.4333333 C358.622222,12.0277778 361.666667,16.3555556 365.072222,23.3777778 C373.216667,40.1611111 383.422222,72.4111111 365.072222,106.344444 C363.111111,109.972222 360.855556,113.616667 358.205556,117.261111 Z" id="Shape"></path>
                <path d="M179.427778,30.0833333 L166.094444,19.5777778 C153.844444,35.0666667 138.083333,73.7166667 166.094444,109.138889 L172.75,103.872222 L179.405556,98.6055556 C176.644444,95.1111111 174.472222,91.6222222 172.75,88.1666667 C163.588889,69.8 167.866667,52.4833333 172.75,41.6055556 C175.788889,34.8444444 179.05,30.5722222 179.427778,30.0833333 Z" id="Shape"></path>
                <path d="M142.077778,11.45 C142.077778,11.4444444 142.088889,11.4388889 142.088889,11.4333333 L135.211111,6.45555556 L128.344444,1.46111111 C127.888889,2.08888889 83.15,65.0722222 128.344444,127.238889 L135.211111,122.25 L142.077778,117.255556 C139.422222,113.605556 137.172222,109.961111 135.211111,106.333333 C116.861111,72.4055556 127.066667,40.1555556 135.211111,23.3722222 C138.6,16.4 141.622222,12.0833333 142.077778,11.45 Z" id="Shape"></path>
                <path d="M26.1666667,302.488889 C37.4888889,302.488889 47.0555556,295.222222 50.6944444,285.144444 L54.9888889,285.144444 C57.8333333,312.005556 73.5555556,335.022222 95.8055556,348.055556 L95.8055556,359.972222 C95.8055556,381.233333 113.105556,398.527778 134.361111,398.527778 L359.016667,398.527778 C380.277778,398.527778 397.577778,381.227778 397.577778,359.972222 L397.577778,351.527778 C423.294444,339.422222 441.877778,314.588889 445,285.144444 L449.294444,285.144444 C452.933333,295.222222 462.505556,302.488889 473.827778,302.488889 C488.255556,302.488889 499.994444,290.75 499.994444,276.322222 C499.994444,261.894444 488.255556,250.155556 473.827778,250.155556 C462.505556,250.155556 452.938889,257.422222 449.294444,267.5 L445,267.5 C441.877778,238.055556 423.294444,213.222222 397.577778,201.116667 L397.577778,192.672222 C397.577778,171.411111 380.277778,154.116667 359.016667,154.116667 L255.516667,154.116667 L255.516667,105.055556 C274.255556,100.994444 288.344444,84.3055556 288.344444,64.3666667 C288.344444,41.4 269.661111,22.7166667 246.694444,22.7166667 C223.727778,22.7166667 205.044444,41.4 205.044444,64.3666667 C205.044444,84.3055556 219.133333,100.994444 237.872222,105.055556 L237.872222,154.116667 L134.366667,154.116667 C113.105556,154.116667 95.8111111,171.416667 95.8111111,192.672222 L95.8111111,204.588889 C73.5555556,217.627778 57.8388889,240.644444 54.9944444,267.5 L50.7,267.5 C47.0611111,257.422222 37.4888889,250.155556 26.1722222,250.155556 C11.7444444,250.155556 0.00555555556,261.894444 0.00555555556,276.322222 C-9.67108338e-16,290.75 11.7388889,302.488889 26.1666667,302.488889 Z M473.833333,267.8 C478.533333,267.8 482.355556,271.622222 482.355556,276.322222 C482.355556,281.022222 478.533333,284.844444 473.833333,284.844444 C469.133333,284.844444 465.311111,281.022222 465.311111,276.322222 C465.311111,271.622222 469.133333,267.8 473.833333,267.8 Z M397.583333,221.194444 C415.75,232.85 427.838889,253.183333 427.838889,276.322222 C427.838889,299.461111 415.75,319.794444 397.583333,331.45 L397.583333,221.194444 Z M222.694444,64.3611111 C222.694444,51.1277778 233.461111,40.3611111 246.694444,40.3611111 C259.927778,40.3611111 270.7,51.1277778 270.7,64.3611111 C270.7,77.5944444 259.933333,88.3611111 246.694444,88.3611111 C233.461111,88.3611111 222.694444,77.5944444 222.694444,64.3611111 Z M113.455556,192.666667 C113.455556,181.138889 122.833333,171.755556 134.366667,171.755556 L359.022222,171.755556 C370.555556,171.755556 379.933333,181.133333 379.933333,192.666667 L379.933333,359.972222 C379.933333,371.5 370.555556,380.883333 359.022222,380.883333 L134.366667,380.883333 C122.838889,380.883333 113.455556,371.505556 113.455556,359.972222 L113.455556,192.666667 Z M95.8111111,225.983333 L95.8111111,326.661111 C81.3722222,314.633333 72.1611111,296.538889 72.1611111,276.322222 C72.1611111,256.105556 81.3722222,238.005556 95.8111111,225.983333 Z M26.1666667,267.8 C30.8666667,267.8 34.6888889,271.622222 34.6888889,276.322222 C34.6888889,281.022222 30.8666667,284.844444 26.1666667,284.844444 C21.4666667,284.844444 17.6444444,281.022222 17.6444444,276.322222 C17.65,271.622222 21.4666667,267.8 26.1666667,267.8 Z" id="Shape"></path>
                <path d="M196.05,262.544444 C196.05,258.705556 199.172222,255.583333 203.011111,255.583333 L211.088889,255.583333 C214.927778,255.583333 218.05,258.705556 218.05,262.544444 L218.05,305.883333 L235.7,305.883333 L235.7,262.544444 C235.7,248.972222 224.661111,237.933333 211.094444,237.933333 L203.016667,237.933333 C189.45,237.933333 178.411111,248.972222 178.411111,262.544444 L178.411111,305.883333 L196.061111,305.883333 L196.061111,262.544444 L196.05,262.544444 Z" id="Shape"></path>
                <path d="M281.95,262.544444 C281.95,258.705556 285.072222,255.583333 288.911111,255.583333 L296.988889,255.583333 C300.827778,255.583333 303.95,258.705556 303.95,262.544444 L303.95,305.883333 L321.6,305.883333 L321.6,262.544444 C321.6,248.972222 310.561111,237.933333 296.994444,237.933333 L288.916667,237.933333 C275.344444,237.933333 264.305556,248.972222 264.305556,262.544444 L264.305556,305.883333 L281.955556,305.883333 L281.955556,262.544444 L281.95,262.544444 Z" id="Shape"></path>
                <path d="M168.466667,358.883333 L324.927778,358.883333 C343.127778,358.883333 357.933333,344.077778 357.933333,325.877778 L357.933333,226.766667 C357.933333,208.566667 343.127778,193.761111 324.927778,193.761111 L168.466667,193.761111 C150.266667,193.761111 135.461111,208.566667 135.461111,226.766667 L135.461111,325.877778 C135.455556,344.077778 150.261111,358.883333 168.466667,358.883333 Z M153.105556,226.766667 C153.105556,218.294444 159.994444,211.405556 168.466667,211.405556 L324.927778,211.405556 C333.4,211.405556 340.288889,218.294444 340.288889,226.766667 L340.288889,325.877778 C340.288889,334.344444 333.4,341.233333 324.927778,341.233333 L168.466667,341.233333 C159.994444,341.233333 153.105556,334.344444 153.105556,325.877778 L153.105556,226.766667 Z" id="Shape"></path>
            </g>
        </g>
    </g>
</svg>